<?xml version="1.0" standalone="no"?>
<!DOCTYPE svg PUBLIC "-//W3C//DTD SVG 20010904//EN"
 "http://www.w3.org/TR/2001/REC-SVG-20010904/DTD/svg10.dtd">
<svg version="1.0" xmlns="http://www.w3.org/2000/svg"
 width="1200.000000pt" height="1200.000000pt" viewBox="0 0 1200.000000 1200.000000"
 preserveAspectRatio="xMidYMid meet">
<metadata>
Created by potrace 1.11, written by Peter Selinger 2001-2013
</metadata>
<g transform="translate(0.000000,1200.000000) scale(0.100000,-0.100000)"
fill="#000000" stroke="none">
<path d="M5826 10520 c23 -11 68 -22 100 -25 l59 -5 -75 18 c-41 10 -86 21
-100 25 -14 4 -7 -2 16 -13z"/>
<path d="M4540 10200 c-227 -32 -430 -112 -635 -250 -120 -81 -205 -130 -375
-220 -216 -112 -269 -148 -365 -245 -143 -142 -185 -264 -192 -555 -4 -176 -3
-189 22 -280 33 -120 40 -191 60 -580 53 -1075 58 -2248 15 -3245 -40 -901
-112 -1820 -211 -2683 -29 -257 -30 -264 -12 -300 10 -20 32 -46 50 -58 29
-20 49 -21 340 -27 534 -12 2982 -19 3605 -10 l597 8 30 29 c57 54 57 71 7
298 -38 169 -87 446 -110 611 l-5 37 217 0 c228 0 462 13 537 30 192 43 385
192 528 407 201 302 346 745 451 1383 43 258 57 404 63 655 8 360 -15 664 -82
1083 -126 777 -301 1229 -584 1513 -160 159 -300 231 -488 249 -54 5 -232 10
-395 10 l-298 0 0 137 c0 128 2 142 35 244 54 166 68 269 62 439 -5 160 -27
252 -92 380 -117 232 -355 429 -640 530 -184 65 -231 71 -580 80 -248 6 -334
12 -380 25 -33 9 -143 58 -245 110 -303 152 -447 193 -710 200 -85 2 -184 0
-220 -5z m457 -278 c109 -30 196 -66 347 -143 277 -141 352 -159 655 -159 329
0 502 -26 666 -100 171 -77 343 -228 418 -367 114 -215 102 -482 -38 -788 -18
-39 -87 -163 -155 -275 -141 -234 -210 -372 -240 -480 -12 -46 -26 -145 -35
-255 -8 -101 -21 -199 -30 -225 -42 -118 -119 -195 -232 -230 -79 -24 -122
-25 -194 -4 -124 36 -215 116 -414 364 -344 429 -550 545 -1285 730 -354 88
-526 145 -683 224 -257 129 -443 279 -506 408 -27 54 -34 84 -42 174 -17 178
2 326 52 425 51 102 116 151 387 293 97 51 242 136 322 188 219 144 346 202
513 234 107 20 399 12 494 -14z m-1332 -1938 c185 -90 322 -136 675 -225 371
-94 575 -154 567 -168 -1 -3 -14 -28 -27 -56 l-25 -50 -3 -2402 -2 -2402 21
-58 c29 -79 122 -171 202 -202 84 -31 290 -31 374 1 80 29 172 121 201 201
l22 58 0 2130 0 2131 69 -70 c39 -39 99 -91 135 -117 l66 -47 0 -2014 0 -2013
21 -58 c29 -79 122 -171 202 -202 84 -31 290 -31 374 1 80 29 172 121 201 201
l22 58 0 2108 0 2109 36 75 c38 81 63 195 64 292 1 204 64 410 172 568 l19 27
30 -30 c17 -16 40 -32 52 -35 12 -2 216 -6 452 -8 490 -5 485 -4 609 -87 248
-167 435 -549 556 -1139 124 -609 166 -1185 119 -1656 -13 -131 -71 -486 -109
-666 -157 -745 -423 -1180 -747 -1219 -43 -5 -249 -11 -458 -13 -421 -5 -426
-6 -465 -70 -22 -36 -25 -86 -10 -168 5 -30 21 -133 35 -229 23 -154 75 -436
91 -496 l6 -21 -959 -7 c-789 -6 -3119 7 -3129 16 -1 2 8 100 22 218 91 805
164 1793 205 2765 32 773 17 2522 -26 3097 l-6 78 98 -66 c54 -36 166 -99 248
-140z m1541 -540 c96 -63 196 -160 288 -277 l66 -85 0 -2174 c0 -2387 4 -2233
-60 -2310 -16 -20 -51 -47 -77 -60 -42 -20 -63 -23 -163 -23 -100 0 -121 3
-163 23 -26 13 -61 40 -77 60 -64 78 -60 -94 -60 2486 0 2335 1 2351 21 2395
33 73 34 74 92 45 29 -15 89 -50 133 -80z m1444 -2684 c0 -1414 -3 -2024 -11
-2060 -14 -66 -62 -127 -124 -159 -45 -24 -61 -26 -165 -26 -100 0 -121 3
-163 23 -26 13 -61 40 -77 60 -64 77 -60 -56 -60 2100 0 1866 1 1964 17 1957
89 -34 278 -31 381 5 35 12 92 42 125 65 34 24 65 43 70 44 4 0 7 -903 7
-2009z"/>
<path d="M4045 7746 c-128 -32 -224 -110 -278 -223 l-32 -68 0 -2370 0 -2370
32 -66 c127 -258 472 -314 668 -108 31 32 68 84 83 116 l27 58 0 2365 0 2365
-23 58 c-29 70 -112 163 -179 200 -98 53 -200 67 -298 43z m217 -128 c60 -26
129 -99 154 -163 19 -49 19 -107 19 -2370 0 -1907 -2 -2327 -13 -2358 -21 -58
-83 -129 -143 -162 -48 -27 -63 -30 -139 -30 -69 0 -93 5 -127 23 -66 35 -110
79 -140 140 l-28 57 0 2330 0 2330 28 57 c73 149 239 211 389 146z"/>
<path d="M7207 7363 l-168 -3 5 -1103 c12 -2381 17 -2703 36 -2739 38 -71 139
-88 533 -91 275 -2 320 4 416 60 144 84 258 265 341 543 36 121 111 492 134
660 46 333 46 728 1 1260 -38 435 -156 889 -294 1124 -63 109 -168 214 -256
257 l-70 34 -255 1 c-140 0 -331 -1 -423 -3z m649 -288 c125 -74 236 -333 323
-755 85 -415 112 -1195 55 -1601 -20 -150 -97 -523 -128 -624 -59 -199 -138
-334 -218 -377 -42 -22 -50 -23 -283 -20 -132 1 -247 4 -256 7 -15 5 -17 95
-23 1103 -3 603 -8 1363 -11 1689 l-6 592 73 4 c40 1 154 4 252 5 175 2 180 1
222 -23z"/>
<path d="M7840 9566 c0 -2 8 -10 18 -17 15 -13 16 -12 3 4 -13 16 -21 21 -21
13z"/>
<path d="M8416 8675 c21 -89 61 -149 125 -184 l44 -25 -46 55 c-25 30 -65 83
-88 119 -32 49 -41 58 -35 35z"/>
<path d="M8277 2196 c-121 -41 -177 -117 -176 -241 l0 -70 18 47 c39 99 101
181 184 244 33 24 55 44 50 44 -4 0 -39 -11 -76 -24z"/>
</g>
</svg>
